<mxfile host="app.diagrams.net" agent="Mozilla/5.0 (Windows NT 10.0; Win64; x64) AppleWebKit/537.36 (KHTML, like Gecko) Chrome/136.0.0.0 Safari/537.36" version="27.0.6" pages="3">
  <diagram id="cQOA75MhWtw8xB7MegDM" name="Page-2">
    <mxGraphModel dx="1246" dy="730" grid="1" gridSize="10" guides="1" tooltips="1" connect="1" arrows="1" fold="1" page="1" pageScale="1" pageWidth="1300" pageHeight="1300" math="0" shadow="0">
      <root>
        <mxCell id="0" />
        <mxCell id="1" parent="0" />
        <mxCell id="KOtJxPANj1FLsA_ij19_-1" value="Customer" style="swimlane;startSize=20;horizontal=0;fillColor=#dae8fc;strokeColor=#6c8ebf;rotation=90;" parent="1" vertex="1">
          <mxGeometry x="-400" y="560" width="1120" height="240" as="geometry" />
        </mxCell>
        <mxCell id="PfZOJwtF228f2BpK_ug3-11" value="" style="group" parent="KOtJxPANj1FLsA_ij19_-1" vertex="1" connectable="0">
          <mxGeometry x="500" y="-398.13" width="123" height="773.99" as="geometry" />
        </mxCell>
        <mxCell id="sD7svQfoT9h4g5HT7iYR-10" style="edgeStyle=orthogonalEdgeStyle;rounded=0;orthogonalLoop=1;jettySize=auto;html=1;entryX=0.5;entryY=0;entryDx=0;entryDy=0;" parent="PfZOJwtF228f2BpK_ug3-11" source="79ibHpBMerQDh33CQug3-1" target="PfZOJwtF228f2BpK_ug3-1" edge="1">
          <mxGeometry relative="1" as="geometry" />
        </mxCell>
        <mxCell id="79ibHpBMerQDh33CQug3-1" value="" style="ellipse;whiteSpace=wrap;html=1;aspect=fixed;fillColor=#000000;strokeColor=#000000;" parent="PfZOJwtF228f2BpK_ug3-11" vertex="1">
          <mxGeometry x="43" width="34" height="34" as="geometry" />
        </mxCell>
        <mxCell id="PfZOJwtF228f2BpK_ug3-1" value="Pendaftaran Akun" style="rounded=1;whiteSpace=wrap;html=1;fillColor=#dae8fc;strokeColor=#6c8ebf;" parent="PfZOJwtF228f2BpK_ug3-11" vertex="1">
          <mxGeometry y="64" width="120" height="40" as="geometry" />
        </mxCell>
        <mxCell id="sD7svQfoT9h4g5HT7iYR-11" value="&lt;font style=&quot;font-size: 9px;&quot;&gt;start&lt;/font&gt;" style="text;html=1;align=center;verticalAlign=middle;resizable=0;points=[];autosize=1;strokeColor=none;fillColor=none;" parent="PfZOJwtF228f2BpK_ug3-11" vertex="1">
          <mxGeometry x="78" width="40" height="30" as="geometry" />
        </mxCell>
        <mxCell id="ylXejPjhORW1_OEYjilS-5" value="" style="group" parent="PfZOJwtF228f2BpK_ug3-11" vertex="1" connectable="0">
          <mxGeometry y="278.13" width="123" height="619.99" as="geometry" />
        </mxCell>
        <mxCell id="PfZOJwtF228f2BpK_ug3-2" value="Login" style="rounded=1;whiteSpace=wrap;html=1;fillColor=#dae8fc;strokeColor=#6c8ebf;" parent="ylXejPjhORW1_OEYjilS-5" vertex="1">
          <mxGeometry x="20" width="80" height="40" as="geometry" />
        </mxCell>
        <mxCell id="PfZOJwtF228f2BpK_ug3-3" value="Melihat Daftar Mobil" style="rounded=1;whiteSpace=wrap;html=1;fillColor=#dae8fc;strokeColor=#6c8ebf;" parent="ylXejPjhORW1_OEYjilS-5" vertex="1">
          <mxGeometry x="3" y="90" width="120" height="40" as="geometry" />
        </mxCell>
        <mxCell id="PfZOJwtF228f2BpK_ug3-4" value="Pemesanan Mobil" style="rounded=1;whiteSpace=wrap;html=1;fillColor=#dae8fc;strokeColor=#6c8ebf;" parent="ylXejPjhORW1_OEYjilS-5" vertex="1">
          <mxGeometry y="180" width="120" height="40" as="geometry" />
        </mxCell>
        <mxCell id="PfZOJwtF228f2BpK_ug3-5" value="Konfirmasi Pembayaran" style="rounded=1;whiteSpace=wrap;html=1;fillColor=#dae8fc;strokeColor=#6c8ebf;" parent="ylXejPjhORW1_OEYjilS-5" vertex="1">
          <mxGeometry x="3" y="280" width="120" height="40" as="geometry" />
        </mxCell>
        <mxCell id="PfZOJwtF228f2BpK_ug3-6" value="Penyerahan Mobil" style="rounded=1;whiteSpace=wrap;html=1;fillColor=#dae8fc;strokeColor=#6c8ebf;" parent="ylXejPjhORW1_OEYjilS-5" vertex="1">
          <mxGeometry y="379.99" width="120" height="40" as="geometry" />
        </mxCell>
        <mxCell id="PfZOJwtF228f2BpK_ug3-7" value="Penggunaan Mobil" style="rounded=1;whiteSpace=wrap;html=1;fillColor=#dae8fc;strokeColor=#6c8ebf;" parent="ylXejPjhORW1_OEYjilS-5" vertex="1">
          <mxGeometry y="479.99" width="120" height="40" as="geometry" />
        </mxCell>
        <mxCell id="PfZOJwtF228f2BpK_ug3-8" value="Pengembalian Mobil" style="rounded=1;whiteSpace=wrap;html=1;fillColor=#dae8fc;strokeColor=#6c8ebf;" parent="ylXejPjhORW1_OEYjilS-5" vertex="1">
          <mxGeometry y="579.99" width="120" height="40" as="geometry" />
        </mxCell>
        <mxCell id="ylXejPjhORW1_OEYjilS-20" value="Notifikasi Pendaftaran Akun Berhasil" style="rounded=1;whiteSpace=wrap;html=1;fillColor=#dae8fc;strokeColor=#6c8ebf;" parent="PfZOJwtF228f2BpK_ug3-11" vertex="1">
          <mxGeometry x="-2" y="208.13" width="120" height="40" as="geometry" />
        </mxCell>
        <mxCell id="ohk5mgI61jgBAOQ4yL62-1" value="System" style="swimlane;startSize=20;horizontal=0;fillColor=#e1d5e7;strokeColor=#9673a6;rotation=90;" parent="1" vertex="1">
          <mxGeometry x="-160" y="560" width="1120" height="240" as="geometry" />
        </mxCell>
        <mxCell id="sD7svQfoT9h4g5HT7iYR-4" value="«system»&#xa;Proses Pemesanan Mobil" style="rounded=1;whiteSpace=wrap;html=1;fillColor=#e1d5e7;strokeColor=#000000;" parent="ohk5mgI61jgBAOQ4yL62-1" vertex="1">
          <mxGeometry x="480" y="-16.99999999999997" width="150" height="40" as="geometry" />
        </mxCell>
        <mxCell id="sD7svQfoT9h4g5HT7iYR-5" value="«system»&#xa;Verifikasi Pembayaran" style="rounded=1;whiteSpace=wrap;html=1;fillColor=#e1d5e7;strokeColor=#9673a6;" parent="ohk5mgI61jgBAOQ4yL62-1" vertex="1">
          <mxGeometry x="485" y="323.75" width="150" height="40" as="geometry" />
        </mxCell>
        <mxCell id="sD7svQfoT9h4g5HT7iYR-1" value="" style="ellipse;whiteSpace=wrap;html=1;aspect=fixed;fillColor=#000000;strokeColor=#000000;" parent="ohk5mgI61jgBAOQ4yL62-1" vertex="1">
          <mxGeometry x="545" y="508.75" width="20" height="20" as="geometry" />
        </mxCell>
        <mxCell id="sD7svQfoT9h4g5HT7iYR-2" value="" style="ellipse;whiteSpace=wrap;html=1;aspect=fixed;fillColor=none;strokeColor=#000000;" parent="ohk5mgI61jgBAOQ4yL62-1" vertex="1">
          <mxGeometry x="540" y="503.75" width="30" height="30" as="geometry" />
        </mxCell>
        <mxCell id="hJQ_a-hvJXNJn6hqN4ns-5" value="«system»&lt;div&gt;Menerima Data Pendaftaran&lt;br&gt;&lt;/div&gt;" style="rounded=1;whiteSpace=wrap;html=1;fillColor=#e1d5e7;strokeColor=#000000;" parent="ohk5mgI61jgBAOQ4yL62-1" vertex="1">
          <mxGeometry x="485" y="-334.13" width="150" height="40" as="geometry" />
        </mxCell>
        <mxCell id="ylXejPjhORW1_OEYjilS-4" value="«system»&#xa;Proses Pemesanan Mobil" style="rounded=1;whiteSpace=wrap;html=1;fillColor=#e1d5e7;strokeColor=#000000;" parent="ohk5mgI61jgBAOQ4yL62-1" vertex="1">
          <mxGeometry x="485" y="-250" width="150" height="40" as="geometry" />
        </mxCell>
        <mxCell id="bzaND2EY4WvE75km1R8g-1" value="Sopir (Driver)" style="swimlane;startSize=20;horizontal=0;fillColor=#d5e8d4;strokeColor=#82b366;rotation=90;" parent="1" vertex="1">
          <mxGeometry x="80" y="560" width="1120.37" height="240.25" as="geometry" />
        </mxCell>
        <mxCell id="2BGqfWzJBlMTcwPBi3eM-2" value="Login" style="rounded=1;whiteSpace=wrap;html=1;fillColor=#d5e8d4;strokeColor=#82b366;" parent="bzaND2EY4WvE75km1R8g-1" vertex="1">
          <mxGeometry x="520.1899999999999" y="-159.99999999999994" width="80" height="40" as="geometry" />
        </mxCell>
        <mxCell id="2BGqfWzJBlMTcwPBi3eM-3" value="Penyerahan Mobil" style="rounded=1;whiteSpace=wrap;html=1;fillColor=#d5e8d4;strokeColor=#82b366;" parent="bzaND2EY4WvE75km1R8g-1" vertex="1">
          <mxGeometry x="500.18999999999994" y="-69.99999999999994" width="120" height="40" as="geometry" />
        </mxCell>
        <mxCell id="2BGqfWzJBlMTcwPBi3eM-4" value="Penggunaan Mobil" style="rounded=1;whiteSpace=wrap;html=1;fillColor=#d5e8d4;strokeColor=#82b366;" parent="bzaND2EY4WvE75km1R8g-1" vertex="1">
          <mxGeometry x="500.18999999999994" y="30.000000000000057" width="120" height="40" as="geometry" />
        </mxCell>
        <mxCell id="2BGqfWzJBlMTcwPBi3eM-5" value="Pengembalian Mobil" style="rounded=1;whiteSpace=wrap;html=1;fillColor=#d5e8d4;strokeColor=#82b366;" parent="bzaND2EY4WvE75km1R8g-1" vertex="1">
          <mxGeometry x="500.18999999999994" y="160.00000000000006" width="120" height="40" as="geometry" />
        </mxCell>
        <mxCell id="01p1m4sroqPD6ppPYlkh-1" value="Owner" style="swimlane;startSize=20;horizontal=0;fillColor=#f8cecc;strokeColor=#b85450;rotation=90;" parent="1" vertex="1">
          <mxGeometry x="583.82" y="546.41" width="1120" height="267.64" as="geometry" />
        </mxCell>
        <mxCell id="4u6XGzO_qfQD8vu22Z_5-2" value="Pengelolaan Mobil" style="rounded=1;whiteSpace=wrap;html=1;fillColor=#f8cecc;strokeColor=#b85450;" parent="01p1m4sroqPD6ppPYlkh-1" vertex="1">
          <mxGeometry x="500" y="-57" width="120" height="40" as="geometry" />
        </mxCell>
        <mxCell id="4u6XGzO_qfQD8vu22Z_5-3" value="Laporan dan Evaluasi" style="rounded=1;whiteSpace=wrap;html=1;fillColor=#f8cecc;strokeColor=#b85450;" parent="01p1m4sroqPD6ppPYlkh-1" vertex="1">
          <mxGeometry x="490" y="206.19" width="140" height="40" as="geometry" />
        </mxCell>
        <mxCell id="dF0UgoKoTiNk3la0VGGl-1" value="Admin" style="swimlane;startSize=20;horizontal=0;fillColor=#ffe6cc;strokeColor=#d79b00;rotation=90;" parent="1" vertex="1">
          <mxGeometry x="325" y="555.13" width="1120" height="250" as="geometry" />
        </mxCell>
        <mxCell id="2Y1HbaAFJdXDQZyM6hTv-2" value="Pengelolaan Mobil" style="rounded=1;whiteSpace=wrap;html=1;fillColor=#ffe6cc;strokeColor=#d79b00;" parent="dF0UgoKoTiNk3la0VGGl-1" vertex="1">
          <mxGeometry x="500" y="-105.12999999999994" width="120" height="40" as="geometry" />
        </mxCell>
        <mxCell id="2Y1HbaAFJdXDQZyM6hTv-3" value="Penerimaan Order" style="rounded=1;whiteSpace=wrap;html=1;fillColor=#ffe6cc;strokeColor=#d79b00;" parent="dF0UgoKoTiNk3la0VGGl-1" vertex="1">
          <mxGeometry x="500" y="-34.44" width="120" height="40" as="geometry" />
        </mxCell>
        <mxCell id="ylXejPjhORW1_OEYjilS-23" value="" style="edgeStyle=orthogonalEdgeStyle;rounded=0;orthogonalLoop=1;jettySize=auto;html=1;" parent="dF0UgoKoTiNk3la0VGGl-1" source="2Y1HbaAFJdXDQZyM6hTv-4" target="ylXejPjhORW1_OEYjilS-22" edge="1">
          <mxGeometry relative="1" as="geometry" />
        </mxCell>
        <mxCell id="2Y1HbaAFJdXDQZyM6hTv-4" value="Verifikasi dan Aktivasi Akun" style="rounded=1;whiteSpace=wrap;html=1;fillColor=#ffe6cc;strokeColor=#d79b00;" parent="dF0UgoKoTiNk3la0VGGl-1" vertex="1">
          <mxGeometry x="480" y="-289.26000000000005" width="180" height="40" as="geometry" />
        </mxCell>
        <mxCell id="2Y1HbaAFJdXDQZyM6hTv-5" value="Penugasan Sopir" style="rounded=1;whiteSpace=wrap;html=1;fillColor=#ffe6cc;strokeColor=#d79b00;" parent="dF0UgoKoTiNk3la0VGGl-1" vertex="1">
          <mxGeometry x="500" y="215.56" width="120" height="40" as="geometry" />
        </mxCell>
        <mxCell id="2Y1HbaAFJdXDQZyM6hTv-6" value="Konfirmasi Pembayaran" style="rounded=1;whiteSpace=wrap;html=1;fillColor=#ffe6cc;strokeColor=#d79b00;" parent="dF0UgoKoTiNk3la0VGGl-1" vertex="1">
          <mxGeometry x="490" y="315.56" width="140" height="40" as="geometry" />
        </mxCell>
        <mxCell id="2Y1HbaAFJdXDQZyM6hTv-9" value="Pengembalian Mobil" style="rounded=1;whiteSpace=wrap;html=1;fillColor=#ffe6cc;strokeColor=#d79b00;" parent="dF0UgoKoTiNk3la0VGGl-1" vertex="1">
          <mxGeometry x="500" y="405.56" width="120" height="40" as="geometry" />
        </mxCell>
        <mxCell id="2Y1HbaAFJdXDQZyM6hTv-8" value="Penyerahan Mobil" style="rounded=1;whiteSpace=wrap;html=1;fillColor=#ffe6cc;strokeColor=#d79b00;" parent="dF0UgoKoTiNk3la0VGGl-1" vertex="1">
          <mxGeometry x="500" y="485.56" width="120" height="40" as="geometry" />
        </mxCell>
        <mxCell id="ylXejPjhORW1_OEYjilS-22" value="pejuh" style="rhombus;whiteSpace=wrap;html=1;fillColor=#ffe6cc;strokeColor=#d79b00;rounded=1;" parent="dF0UgoKoTiNk3la0VGGl-1" vertex="1">
          <mxGeometry x="530" y="-215.13000000000005" width="80" height="80" as="geometry" />
        </mxCell>
        <mxCell id="ylXejPjhORW1_OEYjilS-1" style="edgeStyle=orthogonalEdgeStyle;rounded=0;orthogonalLoop=1;jettySize=auto;html=1;entryX=0;entryY=0.5;entryDx=0;entryDy=0;" parent="1" source="PfZOJwtF228f2BpK_ug3-1" target="hJQ_a-hvJXNJn6hqN4ns-5" edge="1">
          <mxGeometry relative="1" as="geometry">
            <mxPoint x="300" y="280" as="targetPoint" />
          </mxGeometry>
        </mxCell>
        <mxCell id="ylXejPjhORW1_OEYjilS-3" style="edgeStyle=orthogonalEdgeStyle;rounded=0;orthogonalLoop=1;jettySize=auto;html=1;entryX=0.5;entryY=0;entryDx=0;entryDy=0;" parent="1" source="hJQ_a-hvJXNJn6hqN4ns-5" target="2Y1HbaAFJdXDQZyM6hTv-4" edge="1">
          <mxGeometry relative="1" as="geometry" />
        </mxCell>
      </root>
    </mxGraphModel>
  </diagram>
  <diagram id="C5RBs43oDa-KdzZeNtuy" name="Page-1">
    <mxGraphModel dx="609" dy="310" grid="1" gridSize="10" guides="1" tooltips="1" connect="1" arrows="1" fold="1" page="1" pageScale="1" pageWidth="1169" pageHeight="827" math="0" shadow="0">
      <root>
        <mxCell id="WIyWlLk6GJQsqaUBKTNV-0" />
        <mxCell id="WIyWlLk6GJQsqaUBKTNV-1" parent="WIyWlLk6GJQsqaUBKTNV-0" />
        <mxCell id="title" value="Activity Diagram: Car Rental System" style="text;html=1;strokeColor=none;fillColor=none;align=center;verticalAlign=middle;whiteSpace=wrap;rounded=0;fontSize=16;fontStyle=1" parent="WIyWlLk6GJQsqaUBKTNV-1" vertex="1">
          <mxGeometry x="251" y="20" width="360" height="30" as="geometry" />
        </mxCell>
        <mxCell id="swimlane-customer" value="Customer" style="swimlane;startSize=20;horizontal=0;fillColor=#dae8fc;strokeColor=#6c8ebf;" parent="WIyWlLk6GJQsqaUBKTNV-1" vertex="1">
          <mxGeometry x="51" y="80" width="760" height="200" as="geometry" />
        </mxCell>
        <mxCell id="swimlane-sopir" value="Sopir (Driver)" style="swimlane;startSize=20;horizontal=0;fillColor=#d5e8d4;strokeColor=#82b366;" parent="WIyWlLk6GJQsqaUBKTNV-1" vertex="1">
          <mxGeometry x="51" y="280" width="760" height="180" as="geometry" />
        </mxCell>
        <mxCell id="driver-register" value="Pendaftaran Akun" style="rounded=1;whiteSpace=wrap;html=1;fillColor=#d5e8d4;strokeColor=#82b366;" parent="swimlane-sopir" vertex="1">
          <mxGeometry x="80" y="40" width="120" height="40" as="geometry" />
        </mxCell>
        <mxCell id="swimlane-admin" value="Admin" style="swimlane;startSize=20;horizontal=0;fillColor=#ffe6cc;strokeColor=#d79b00;" parent="WIyWlLk6GJQsqaUBKTNV-1" vertex="1">
          <mxGeometry x="51" y="460" width="760" height="200" as="geometry" />
        </mxCell>
        <mxCell id="swimlane-owner" value="Owner" style="swimlane;startSize=20;horizontal=0;fillColor=#f8cecc;strokeColor=#b85450;" parent="WIyWlLk6GJQsqaUBKTNV-1" vertex="1">
          <mxGeometry x="51" y="660" width="760" height="140" as="geometry" />
        </mxCell>
        <mxCell id="swimlane-system" value="System" style="swimlane;startSize=20;horizontal=0;fillColor=#e1d5e7;strokeColor=#9673a6;" parent="WIyWlLk6GJQsqaUBKTNV-1" vertex="1">
          <mxGeometry x="51" y="800" width="760" height="120" as="geometry" />
        </mxCell>
        <mxCell id="start" value="" style="ellipse;whiteSpace=wrap;html=1;aspect=fixed;fillColor=#000000;strokeColor=#000000;" parent="WIyWlLk6GJQsqaUBKTNV-1" vertex="1">
          <mxGeometry x="81" y="130" width="20" height="20" as="geometry" />
        </mxCell>
        <mxCell id="end" value="" style="ellipse;whiteSpace=wrap;html=1;aspect=fixed;fillColor=#000000;strokeColor=#000000;" parent="WIyWlLk6GJQsqaUBKTNV-1" vertex="1">
          <mxGeometry x="751" y="850" width="20" height="20" as="geometry" />
        </mxCell>
        <mxCell id="end-circle" value="" style="ellipse;whiteSpace=wrap;html=1;aspect=fixed;fillColor=none;strokeColor=#000000;" parent="WIyWlLk6GJQsqaUBKTNV-1" vertex="1">
          <mxGeometry x="746" y="845" width="30" height="30" as="geometry" />
        </mxCell>
        <mxCell id="customer-register" value="Pendaftaran Akun" style="rounded=1;whiteSpace=wrap;html=1;fillColor=#dae8fc;strokeColor=#6c8ebf;" parent="WIyWlLk6GJQsqaUBKTNV-1" vertex="1">
          <mxGeometry x="131" y="120" width="120" height="40" as="geometry" />
        </mxCell>
        <mxCell id="customer-login" value="Login" style="rounded=1;whiteSpace=wrap;html=1;fillColor=#dae8fc;strokeColor=#6c8ebf;" parent="WIyWlLk6GJQsqaUBKTNV-1" vertex="1">
          <mxGeometry x="291" y="120" width="80" height="40" as="geometry" />
        </mxCell>
        <mxCell id="customer-view-cars" value="Melihat Daftar Mobil" style="rounded=1;whiteSpace=wrap;html=1;fillColor=#dae8fc;strokeColor=#6c8ebf;" parent="WIyWlLk6GJQsqaUBKTNV-1" vertex="1">
          <mxGeometry x="411" y="120" width="120" height="40" as="geometry" />
        </mxCell>
        <mxCell id="customer-order" value="Pemesanan Mobil" style="rounded=1;whiteSpace=wrap;html=1;fillColor=#dae8fc;strokeColor=#6c8ebf;" parent="WIyWlLk6GJQsqaUBKTNV-1" vertex="1">
          <mxGeometry x="571" y="120" width="120" height="40" as="geometry" />
        </mxCell>
        <mxCell id="customer-payment" value="Konfirmasi Pembayaran" style="rounded=1;whiteSpace=wrap;html=1;fillColor=#dae8fc;strokeColor=#6c8ebf;" parent="WIyWlLk6GJQsqaUBKTNV-1" vertex="1">
          <mxGeometry x="131" y="200" width="140" height="40" as="geometry" />
        </mxCell>
        <mxCell id="customer-receive" value="Penyerahan Mobil" style="rounded=1;whiteSpace=wrap;html=1;fillColor=#dae8fc;strokeColor=#6c8ebf;" parent="WIyWlLk6GJQsqaUBKTNV-1" vertex="1">
          <mxGeometry x="311" y="200" width="120" height="40" as="geometry" />
        </mxCell>
        <mxCell id="customer-use" value="Penggunaan Mobil" style="rounded=1;whiteSpace=wrap;html=1;fillColor=#dae8fc;strokeColor=#6c8ebf;" parent="WIyWlLk6GJQsqaUBKTNV-1" vertex="1">
          <mxGeometry x="471" y="200" width="120" height="40" as="geometry" />
        </mxCell>
        <mxCell id="customer-return" value="Pengembalian Mobil" style="rounded=1;whiteSpace=wrap;html=1;fillColor=#dae8fc;strokeColor=#6c8ebf;" parent="WIyWlLk6GJQsqaUBKTNV-1" vertex="1">
          <mxGeometry x="631" y="200" width="120" height="40" as="geometry" />
        </mxCell>
        <mxCell id="driver-login" value="Login" style="rounded=1;whiteSpace=wrap;html=1;fillColor=#d5e8d4;strokeColor=#82b366;" parent="WIyWlLk6GJQsqaUBKTNV-1" vertex="1">
          <mxGeometry x="291" y="320" width="80" height="40" as="geometry" />
        </mxCell>
        <mxCell id="driver-deliver" value="Penyerahan Mobil" style="rounded=1;whiteSpace=wrap;html=1;fillColor=#d5e8d4;strokeColor=#82b366;" parent="WIyWlLk6GJQsqaUBKTNV-1" vertex="1">
          <mxGeometry x="411" y="320" width="120" height="40" as="geometry" />
        </mxCell>
        <mxCell id="driver-car-use" value="Penggunaan Mobil" style="rounded=1;whiteSpace=wrap;html=1;fillColor=#d5e8d4;strokeColor=#82b366;" parent="WIyWlLk6GJQsqaUBKTNV-1" vertex="1">
          <mxGeometry x="571" y="320" width="120" height="40" as="geometry" />
        </mxCell>
        <mxCell id="driver-car-return" value="Pengembalian Mobil" style="rounded=1;whiteSpace=wrap;html=1;fillColor=#d5e8d4;strokeColor=#82b366;" parent="WIyWlLk6GJQsqaUBKTNV-1" vertex="1">
          <mxGeometry x="311" y="400" width="120" height="40" as="geometry" />
        </mxCell>
        <mxCell id="admin-login" value="Login" style="rounded=1;whiteSpace=wrap;html=1;fillColor=#ffe6cc;strokeColor=#d79b00;" parent="WIyWlLk6GJQsqaUBKTNV-1" vertex="1">
          <mxGeometry x="131" y="500" width="80" height="40" as="geometry" />
        </mxCell>
        <mxCell id="admin-car-management" value="Pengelolaan Mobil" style="rounded=1;whiteSpace=wrap;html=1;fillColor=#ffe6cc;strokeColor=#d79b00;" parent="WIyWlLk6GJQsqaUBKTNV-1" vertex="1">
          <mxGeometry x="251" y="500" width="120" height="40" as="geometry" />
        </mxCell>
        <mxCell id="admin-order-receive" value="Penerimaan Order" style="rounded=1;whiteSpace=wrap;html=1;fillColor=#ffe6cc;strokeColor=#d79b00;" parent="WIyWlLk6GJQsqaUBKTNV-1" vertex="1">
          <mxGeometry x="411" y="500" width="120" height="40" as="geometry" />
        </mxCell>
        <mxCell id="admin-verify-account" value="Verifikasi dan Aktivasi Akun" style="rounded=1;whiteSpace=wrap;html=1;fillColor=#ffe6cc;strokeColor=#d79b00;" parent="WIyWlLk6GJQsqaUBKTNV-1" vertex="1">
          <mxGeometry x="571" y="500" width="180" height="40" as="geometry" />
        </mxCell>
        <mxCell id="admin-assign-driver" value="Penugasan Sopir" style="rounded=1;whiteSpace=wrap;html=1;fillColor=#ffe6cc;strokeColor=#d79b00;" parent="WIyWlLk6GJQsqaUBKTNV-1" vertex="1">
          <mxGeometry x="131" y="580" width="120" height="40" as="geometry" />
        </mxCell>
        <mxCell id="admin-confirm-payment" value="Konfirmasi Pembayaran" style="rounded=1;whiteSpace=wrap;html=1;fillColor=#ffe6cc;strokeColor=#d79b00;" parent="WIyWlLk6GJQsqaUBKTNV-1" vertex="1">
          <mxGeometry x="291" y="580" width="140" height="40" as="geometry" />
        </mxCell>
        <mxCell id="GzEbTHBpW3vaCUBdKHdi-0" value="" style="edgeStyle=orthogonalEdgeStyle;rounded=0;orthogonalLoop=1;jettySize=auto;html=1;" edge="1" parent="WIyWlLk6GJQsqaUBKTNV-1" source="admin-deliver-car" target="admin-return-car">
          <mxGeometry relative="1" as="geometry" />
        </mxCell>
        <mxCell id="admin-deliver-car" value="Penyerahan Mobil" style="rounded=1;whiteSpace=wrap;html=1;fillColor=#ffe6cc;strokeColor=#d79b00;" parent="WIyWlLk6GJQsqaUBKTNV-1" vertex="1">
          <mxGeometry x="471" y="580" width="120" height="40" as="geometry" />
        </mxCell>
        <mxCell id="admin-return-car" value="Pengembalian Mobil" style="rounded=1;whiteSpace=wrap;html=1;fillColor=#ffe6cc;strokeColor=#d79b00;" parent="WIyWlLk6GJQsqaUBKTNV-1" vertex="1">
          <mxGeometry x="631" y="580" width="120" height="40" as="geometry" />
        </mxCell>
        <mxCell id="owner-login" value="Login" style="rounded=1;whiteSpace=wrap;html=1;fillColor=#f8cecc;strokeColor=#b85450;" parent="WIyWlLk6GJQsqaUBKTNV-1" vertex="1">
          <mxGeometry x="131" y="700" width="80" height="40" as="geometry" />
        </mxCell>
        <mxCell id="owner-car-management" value="Pengelolaan Mobil" style="rounded=1;whiteSpace=wrap;html=1;fillColor=#f8cecc;strokeColor=#b85450;" parent="WIyWlLk6GJQsqaUBKTNV-1" vertex="1">
          <mxGeometry x="291" y="700" width="120" height="40" as="geometry" />
        </mxCell>
        <mxCell id="owner-report" value="Laporan dan Evaluasi" style="rounded=1;whiteSpace=wrap;html=1;fillColor=#f8cecc;strokeColor=#b85450;" parent="WIyWlLk6GJQsqaUBKTNV-1" vertex="1">
          <mxGeometry x="491" y="700" width="140" height="40" as="geometry" />
        </mxCell>
        <mxCell id="system-verify-account" value="«system»&#xa;Verifikasi Akun" style="rounded=1;whiteSpace=wrap;html=1;fillColor=#e1d5e7;strokeColor=#9673a6;" parent="WIyWlLk6GJQsqaUBKTNV-1" vertex="1">
          <mxGeometry x="131" y="840" width="120" height="40" as="geometry" />
        </mxCell>
        <mxCell id="system-process-order" value="«system»&#xa;Proses Pemesanan Mobil" style="rounded=1;whiteSpace=wrap;html=1;fillColor=#e1d5e7;strokeColor=#9673a6;" parent="WIyWlLk6GJQsqaUBKTNV-1" vertex="1">
          <mxGeometry x="291" y="840" width="150" height="40" as="geometry" />
        </mxCell>
        <mxCell id="system-payment-verification" value="«system»&#xa;Verifikasi Pembayaran" style="rounded=1;whiteSpace=wrap;html=1;fillColor=#e1d5e7;strokeColor=#9673a6;" parent="WIyWlLk6GJQsqaUBKTNV-1" vertex="1">
          <mxGeometry x="481" y="840" width="150" height="40" as="geometry" />
        </mxCell>
        <mxCell id="arrow-start-register" value="" style="endArrow=classic;html=1;rounded=0;exitX=1;exitY=0.5;exitDx=0;exitDy=0;entryX=0;entryY=0.5;entryDx=0;entryDy=0;" parent="WIyWlLk6GJQsqaUBKTNV-1" source="start" target="customer-register" edge="1">
          <mxGeometry width="50" height="50" relative="1" as="geometry">
            <mxPoint x="401" y="450" as="sourcePoint" />
            <mxPoint x="451" y="400" as="targetPoint" />
          </mxGeometry>
        </mxCell>
        <mxCell id="arrow-register-login" value="" style="endArrow=classic;html=1;rounded=0;exitX=1;exitY=0.5;exitDx=0;exitDy=0;entryX=0;entryY=0.5;entryDx=0;entryDy=0;" parent="WIyWlLk6GJQsqaUBKTNV-1" source="customer-register" target="customer-login" edge="1">
          <mxGeometry width="50" height="50" relative="1" as="geometry">
            <mxPoint x="401" y="450" as="sourcePoint" />
            <mxPoint x="451" y="400" as="targetPoint" />
          </mxGeometry>
        </mxCell>
        <mxCell id="arrow-login-viewcars" value="" style="endArrow=classic;html=1;rounded=0;exitX=1;exitY=0.5;exitDx=0;exitDy=0;entryX=0;entryY=0.5;entryDx=0;entryDy=0;" parent="WIyWlLk6GJQsqaUBKTNV-1" source="customer-login" target="customer-view-cars" edge="1">
          <mxGeometry width="50" height="50" relative="1" as="geometry">
            <mxPoint x="401" y="450" as="sourcePoint" />
            <mxPoint x="451" y="400" as="targetPoint" />
          </mxGeometry>
        </mxCell>
        <mxCell id="arrow-viewcars-order" value="" style="endArrow=classic;html=1;rounded=0;exitX=1;exitY=0.5;exitDx=0;exitDy=0;entryX=0;entryY=0.5;entryDx=0;entryDy=0;" parent="WIyWlLk6GJQsqaUBKTNV-1" source="customer-view-cars" target="customer-order" edge="1">
          <mxGeometry width="50" height="50" relative="1" as="geometry">
            <mxPoint x="401" y="450" as="sourcePoint" />
            <mxPoint x="451" y="400" as="targetPoint" />
          </mxGeometry>
        </mxCell>
        <mxCell id="arrow-order-system" value="" style="endArrow=classic;html=1;rounded=0;exitX=0.5;exitY=1;exitDx=0;exitDy=0;entryX=0.614;entryY=-0.025;entryDx=0;entryDy=0;entryPerimeter=0;" parent="WIyWlLk6GJQsqaUBKTNV-1" source="customer-order" target="system-process-order" edge="1">
          <mxGeometry width="50" height="50" relative="1" as="geometry">
            <mxPoint x="401" y="450" as="sourcePoint" />
            <mxPoint x="451" y="400" as="targetPoint" />
            <Array as="points">
              <mxPoint x="631" y="770" />
              <mxPoint x="383" y="770" />
            </Array>
          </mxGeometry>
        </mxCell>
        <mxCell id="arrow-system-admin" value="" style="endArrow=classic;html=1;rounded=0;exitX=0.5;exitY=0;exitDx=0;exitDy=0;entryX=0.5;entryY=1;entryDx=0;entryDy=0;" parent="WIyWlLk6GJQsqaUBKTNV-1" source="system-process-order" target="admin-order-receive" edge="1">
          <mxGeometry width="50" height="50" relative="1" as="geometry">
            <mxPoint x="401" y="450" as="sourcePoint" />
            <mxPoint x="451" y="400" as="targetPoint" />
            <Array as="points">
              <mxPoint x="366" y="740" />
              <mxPoint x="471" y="740" />
            </Array>
          </mxGeometry>
        </mxCell>
        <mxCell id="arrow-admin-payment" value="" style="endArrow=classic;html=1;rounded=0;exitX=0;exitY=0.5;exitDx=0;exitDy=0;entryX=1;entryY=0.5;entryDx=0;entryDy=0;" parent="WIyWlLk6GJQsqaUBKTNV-1" source="admin-order-receive" target="customer-payment" edge="1">
          <mxGeometry width="50" height="50" relative="1" as="geometry">
            <mxPoint x="401" y="450" as="sourcePoint" />
            <mxPoint x="451" y="400" as="targetPoint" />
            <Array as="points">
              <mxPoint x="391" y="520" />
              <mxPoint x="391" y="220" />
            </Array>
          </mxGeometry>
        </mxCell>
        <mxCell id="arrow-payment-system" value="" style="endArrow=classic;html=1;rounded=0;exitX=0.5;exitY=1;exitDx=0;exitDy=0;entryX=0.5;entryY=0;entryDx=0;entryDy=0;" parent="WIyWlLk6GJQsqaUBKTNV-1" source="customer-payment" target="system-payment-verification" edge="1">
          <mxGeometry width="50" height="50" relative="1" as="geometry">
            <mxPoint x="401" y="450" as="sourcePoint" />
            <mxPoint x="451" y="400" as="targetPoint" />
            <Array as="points">
              <mxPoint x="201" y="440" />
              <mxPoint x="556" y="440" />
            </Array>
          </mxGeometry>
        </mxCell>
        <mxCell id="arrow-system-admin-confirm" value="" style="endArrow=classic;html=1;rounded=0;exitX=0;exitY=0;exitDx=0;exitDy=0;entryX=1;entryY=0.5;entryDx=0;entryDy=0;" parent="WIyWlLk6GJQsqaUBKTNV-1" source="system-payment-verification" target="admin-confirm-payment" edge="1">
          <mxGeometry width="50" height="50" relative="1" as="geometry">
            <mxPoint x="401" y="450" as="sourcePoint" />
            <mxPoint x="451" y="400" as="targetPoint" />
            <Array as="points">
              <mxPoint x="491" y="600" />
            </Array>
          </mxGeometry>
        </mxCell>
        <mxCell id="arrow-admin-assign" value="" style="endArrow=classic;html=1;rounded=0;exitX=0;exitY=0.5;exitDx=0;exitDy=0;entryX=1;entryY=0.5;entryDx=0;entryDy=0;" parent="WIyWlLk6GJQsqaUBKTNV-1" source="admin-confirm-payment" target="admin-assign-driver" edge="1">
          <mxGeometry width="50" height="50" relative="1" as="geometry">
            <mxPoint x="401" y="450" as="sourcePoint" />
            <mxPoint x="451" y="400" as="targetPoint" />
          </mxGeometry>
        </mxCell>
        <mxCell id="arrow-admin-driver" value="" style="endArrow=classic;html=1;rounded=0;exitX=0.5;exitY=0;exitDx=0;exitDy=0;entryX=0;entryY=0.5;entryDx=0;entryDy=0;" parent="WIyWlLk6GJQsqaUBKTNV-1" source="admin-assign-driver" target="driver-deliver" edge="1">
          <mxGeometry width="50" height="50" relative="1" as="geometry">
            <mxPoint x="401" y="450" as="sourcePoint" />
            <mxPoint x="451" y="400" as="targetPoint" />
            <Array as="points">
              <mxPoint x="191" y="340" />
            </Array>
          </mxGeometry>
        </mxCell>
        <mxCell id="arrow-driver-customer" value="" style="endArrow=classic;html=1;rounded=0;exitX=0;exitY=0.5;exitDx=0;exitDy=0;entryX=0.5;entryY=0;entryDx=0;entryDy=0;" parent="WIyWlLk6GJQsqaUBKTNV-1" source="driver-deliver" target="customer-receive" edge="1">
          <mxGeometry width="50" height="50" relative="1" as="geometry">
            <mxPoint x="401" y="450" as="sourcePoint" />
            <mxPoint x="451" y="400" as="targetPoint" />
            <Array as="points">
              <mxPoint x="371" y="340" />
              <mxPoint x="371" y="180" />
            </Array>
          </mxGeometry>
        </mxCell>
        <mxCell id="arrow-receive-use" value="" style="endArrow=classic;html=1;rounded=0;exitX=1;exitY=0.5;exitDx=0;exitDy=0;entryX=0;entryY=0.5;entryDx=0;entryDy=0;" parent="WIyWlLk6GJQsqaUBKTNV-1" source="customer-receive" target="customer-use" edge="1">
          <mxGeometry width="50" height="50" relative="1" as="geometry">
            <mxPoint x="401" y="450" as="sourcePoint" />
            <mxPoint x="451" y="400" as="targetPoint" />
          </mxGeometry>
        </mxCell>
        <mxCell id="arrow-use-return" value="" style="endArrow=classic;html=1;rounded=0;exitX=1;exitY=0.5;exitDx=0;exitDy=0;entryX=0;entryY=0.5;entryDx=0;entryDy=0;" parent="WIyWlLk6GJQsqaUBKTNV-1" source="customer-use" target="customer-return" edge="1">
          <mxGeometry width="50" height="50" relative="1" as="geometry">
            <mxPoint x="401" y="450" as="sourcePoint" />
            <mxPoint x="451" y="400" as="targetPoint" />
          </mxGeometry>
        </mxCell>
        <mxCell id="arrow-return-driver" value="" style="endArrow=classic;html=1;rounded=0;exitX=0.5;exitY=1;exitDx=0;exitDy=0;entryX=1;entryY=0.5;entryDx=0;entryDy=0;" parent="WIyWlLk6GJQsqaUBKTNV-1" source="customer-return" target="driver-car-return" edge="1">
          <mxGeometry width="50" height="50" relative="1" as="geometry">
            <mxPoint x="401" y="450" as="sourcePoint" />
            <mxPoint x="451" y="400" as="targetPoint" />
            <Array as="points">
              <mxPoint x="691" y="420" />
            </Array>
          </mxGeometry>
        </mxCell>
        <mxCell id="arrow-driver-admin-return" value="" style="endArrow=classic;html=1;rounded=0;exitX=0.5;exitY=1;exitDx=0;exitDy=0;entryX=0;entryY=0.5;entryDx=0;entryDy=0;" parent="WIyWlLk6GJQsqaUBKTNV-1" source="driver-car-return" target="admin-return-car" edge="1">
          <mxGeometry width="50" height="50" relative="1" as="geometry">
            <mxPoint x="401" y="450" as="sourcePoint" />
            <mxPoint x="451" y="400" as="targetPoint" />
            <Array as="points">
              <mxPoint x="371" y="580" />
            </Array>
          </mxGeometry>
        </mxCell>
        <mxCell id="arrow-admin-deliver-driver" value="" style="endArrow=classic;html=1;rounded=0;exitX=0.5;exitY=0;exitDx=0;exitDy=0;entryX=0.5;entryY=1;entryDx=0;entryDy=0;" parent="WIyWlLk6GJQsqaUBKTNV-1" source="admin-deliver-car" target="driver-deliver" edge="1">
          <mxGeometry width="50" height="50" relative="1" as="geometry">
            <mxPoint x="401" y="450" as="sourcePoint" />
            <mxPoint x="451" y="400" as="targetPoint" />
            <Array as="points">
              <mxPoint x="531" y="400" />
              <mxPoint x="471" y="400" />
            </Array>
          </mxGeometry>
        </mxCell>
        <mxCell id="arrow-admin-confirm-deliver" value="" style="endArrow=classic;html=1;rounded=0;exitX=1;exitY=0.5;exitDx=0;exitDy=0;entryX=0;entryY=0.5;entryDx=0;entryDy=0;" parent="WIyWlLk6GJQsqaUBKTNV-1" source="admin-confirm-payment" target="admin-deliver-car" edge="1">
          <mxGeometry width="50" height="50" relative="1" as="geometry">
            <mxPoint x="401" y="450" as="sourcePoint" />
            <mxPoint x="451" y="400" as="targetPoint" />
          </mxGeometry>
        </mxCell>
        <mxCell id="arrow-driver-deliver-use" value="" style="endArrow=classic;html=1;rounded=0;exitX=1;exitY=0.5;exitDx=0;exitDy=0;entryX=0;entryY=0.5;entryDx=0;entryDy=0;" parent="WIyWlLk6GJQsqaUBKTNV-1" source="driver-deliver" target="driver-car-use" edge="1">
          <mxGeometry width="50" height="50" relative="1" as="geometry">
            <mxPoint x="401" y="450" as="sourcePoint" />
            <mxPoint x="451" y="400" as="targetPoint" />
          </mxGeometry>
        </mxCell>
        <mxCell id="arrow-driver-use-return" value="" style="endArrow=classic;html=1;rounded=0;exitX=0.5;exitY=1;exitDx=0;exitDy=0;entryX=1;entryY=0.5;entryDx=0;entryDy=0;" parent="WIyWlLk6GJQsqaUBKTNV-1" source="driver-car-use" target="driver-car-return" edge="1">
          <mxGeometry width="50" height="50" relative="1" as="geometry">
            <mxPoint x="401" y="450" as="sourcePoint" />
            <mxPoint x="451" y="400" as="targetPoint" />
            <Array as="points">
              <mxPoint x="631" y="420" />
            </Array>
          </mxGeometry>
        </mxCell>
        <mxCell id="arrow-driver-register-system" value="" style="endArrow=classic;html=1;rounded=0;exitX=0.5;exitY=1;exitDx=0;exitDy=0;entryX=0;entryY=0;entryDx=0;entryDy=0;" parent="WIyWlLk6GJQsqaUBKTNV-1" source="driver-register" target="system-verify-account" edge="1">
          <mxGeometry width="50" height="50" relative="1" as="geometry">
            <mxPoint x="401" y="450" as="sourcePoint" />
            <mxPoint x="451" y="400" as="targetPoint" />
            <Array as="points">
              <mxPoint x="191" y="780" />
              <mxPoint x="131" y="780" />
            </Array>
          </mxGeometry>
        </mxCell>
        <mxCell id="arrow-customer-register-system" value="" style="endArrow=classic;html=1;rounded=0;exitX=0.5;exitY=1;exitDx=0;exitDy=0;entryX=0.5;entryY=0;entryDx=0;entryDy=0;" parent="WIyWlLk6GJQsqaUBKTNV-1" source="customer-register" target="system-verify-account" edge="1">
          <mxGeometry width="50" height="50" relative="1" as="geometry">
            <mxPoint x="401" y="450" as="sourcePoint" />
            <mxPoint x="451" y="400" as="targetPoint" />
            <Array as="points">
              <mxPoint x="191" y="780" />
            </Array>
          </mxGeometry>
        </mxCell>
        <mxCell id="arrow-system-verify-admin" value="" style="endArrow=classic;html=1;rounded=0;exitX=1;exitY=0.5;exitDx=0;exitDy=0;entryX=0;entryY=1;entryDx=0;entryDy=0;" parent="WIyWlLk6GJQsqaUBKTNV-1" source="system-verify-account" target="admin-verify-account" edge="1">
          <mxGeometry width="50" height="50" relative="1" as="geometry">
            <mxPoint x="401" y="450" as="sourcePoint" />
            <mxPoint x="451" y="400" as="targetPoint" />
            <Array as="points">
              <mxPoint x="311" y="860" />
              <mxPoint x="311" y="640" />
              <mxPoint x="571" y="640" />
            </Array>
          </mxGeometry>
        </mxCell>
        <mxCell id="arrow-owner-login-management" value="" style="endArrow=classic;html=1;rounded=0;exitX=1;exitY=0.5;exitDx=0;exitDy=0;entryX=0;entryY=0.5;entryDx=0;entryDy=0;" parent="WIyWlLk6GJQsqaUBKTNV-1" source="owner-login" target="owner-car-management" edge="1">
          <mxGeometry width="50" height="50" relative="1" as="geometry">
            <mxPoint x="401" y="450" as="sourcePoint" />
            <mxPoint x="451" y="400" as="targetPoint" />
          </mxGeometry>
        </mxCell>
        <mxCell id="arrow-owner-management-report" value="" style="endArrow=classic;html=1;rounded=0;exitX=1;exitY=0.5;exitDx=0;exitDy=0;entryX=0;entryY=0.5;entryDx=0;entryDy=0;" parent="WIyWlLk6GJQsqaUBKTNV-1" source="owner-car-management" target="owner-report" edge="1">
          <mxGeometry width="50" height="50" relative="1" as="geometry">
            <mxPoint x="401" y="450" as="sourcePoint" />
            <mxPoint x="451" y="400" as="targetPoint" />
          </mxGeometry>
        </mxCell>
        <mxCell id="arrow-admin-login-management" value="" style="endArrow=classic;html=1;rounded=0;exitX=1;exitY=0.5;exitDx=0;exitDy=0;entryX=0;entryY=0.5;entryDx=0;entryDy=0;" parent="WIyWlLk6GJQsqaUBKTNV-1" source="admin-login" target="admin-car-management" edge="1">
          <mxGeometry width="50" height="50" relative="1" as="geometry">
            <mxPoint x="401" y="450" as="sourcePoint" />
            <mxPoint x="451" y="400" as="targetPoint" />
          </mxGeometry>
        </mxCell>
        <mxCell id="arrow-driver-login-deliver" value="" style="endArrow=classic;html=1;rounded=0;exitX=1;exitY=0.5;exitDx=0;exitDy=0;entryX=0;entryY=0.5;entryDx=0;entryDy=0;" parent="WIyWlLk6GJQsqaUBKTNV-1" source="driver-login" target="driver-deliver" edge="1">
          <mxGeometry width="50" height="50" relative="1" as="geometry">
            <mxPoint x="401" y="450" as="sourcePoint" />
            <mxPoint x="451" y="400" as="targetPoint" />
          </mxGeometry>
        </mxCell>
        <mxCell id="arrow-driver-register-login" value="" style="endArrow=classic;html=1;rounded=0;exitX=1;exitY=0.5;exitDx=0;exitDy=0;entryX=0;entryY=0.5;entryDx=0;entryDy=0;" parent="WIyWlLk6GJQsqaUBKTNV-1" source="driver-register" target="driver-login" edge="1">
          <mxGeometry width="50" height="50" relative="1" as="geometry">
            <mxPoint x="401" y="450" as="sourcePoint" />
            <mxPoint x="451" y="400" as="targetPoint" />
          </mxGeometry>
        </mxCell>
        <mxCell id="arrow-admin-return-end" value="" style="endArrow=classic;html=1;rounded=0;exitX=1;exitY=0.5;exitDx=0;exitDy=0;entryX=0;entryY=0.5;entryDx=0;entryDy=0;" parent="WIyWlLk6GJQsqaUBKTNV-1" source="admin-return-car" target="end" edge="1">
          <mxGeometry width="50" height="50" relative="1" as="geometry">
            <mxPoint x="401" y="450" as="sourcePoint" />
            <mxPoint x="451" y="400" as="targetPoint" />
            <Array as="points">
              <mxPoint x="771" y="600" />
              <mxPoint x="771" y="610" />
              <mxPoint x="731" y="860" />
            </Array>
          </mxGeometry>
        </mxCell>
        <mxCell id="arrow-owner-report-end" value="" style="endArrow=classic;html=1;rounded=0;exitX=1;exitY=0.5;exitDx=0;exitDy=0;entryX=0.5;entryY=0;entryDx=0;entryDy=0;" parent="WIyWlLk6GJQsqaUBKTNV-1" source="owner-report" target="end" edge="1">
          <mxGeometry width="50" height="50" relative="1" as="geometry">
            <mxPoint x="401" y="450" as="sourcePoint" />
            <mxPoint x="451" y="400" as="targetPoint" />
            <Array as="points">
              <mxPoint x="761" y="720" />
            </Array>
          </mxGeometry>
        </mxCell>
      </root>
    </mxGraphModel>
  </diagram>
  <diagram id="zssNlWgTRQqo14rontjr" name="Use Case Diagram">
    <mxGraphModel dx="1246" dy="730" grid="1" gridSize="10" guides="1" tooltips="1" connect="1" arrows="1" fold="1" page="1" pageScale="1" pageWidth="827" pageHeight="1169" math="0" shadow="0">
      <root>
        <mxCell id="0" />
        <mxCell id="1" parent="0" />
        <mxCell id="qBhKY9y_Wehlic3gjd-y-1" value="Sistem Rental Mobil" style="shape=rectangle;whiteSpace=wrap;html=1;fillColor=#f5f5f5;strokeColor=#666666;verticalAlign=top;fontStyle=1;fontSize=14;shadow=0;rounded=1;glass=0;" vertex="1" parent="1">
          <mxGeometry x="510" y="130" width="660" height="950" as="geometry" />
        </mxCell>
        <mxCell id="qBhKY9y_Wehlic3gjd-y-2" value="Owner" style="shape=umlActor;verticalLabelPosition=bottom;verticalAlign=top;html=1;outlineConnect=0;" vertex="1" parent="1">
          <mxGeometry x="350" y="260" width="30" height="60" as="geometry" />
        </mxCell>
        <mxCell id="qBhKY9y_Wehlic3gjd-y-3" value="Admin" style="shape=umlActor;verticalLabelPosition=bottom;verticalAlign=top;html=1;outlineConnect=0;" vertex="1" parent="1">
          <mxGeometry x="350" y="550" width="30" height="60" as="geometry" />
        </mxCell>
        <mxCell id="qBhKY9y_Wehlic3gjd-y-4" value="Sopir" style="shape=umlActor;verticalLabelPosition=bottom;verticalAlign=top;html=1;outlineConnect=0;" vertex="1" parent="1">
          <mxGeometry x="350" y="760" width="30" height="60" as="geometry" />
        </mxCell>
        <mxCell id="qBhKY9y_Wehlic3gjd-y-5" value="Customer" style="shape=umlActor;verticalLabelPosition=bottom;verticalAlign=top;html=1;outlineConnect=0;" vertex="1" parent="1">
          <mxGeometry x="1210" y="550" width="30" height="60" as="geometry" />
        </mxCell>
        <mxCell id="qBhKY9y_Wehlic3gjd-y-6" value="Pendaftaran Akun" style="ellipse;whiteSpace=wrap;html=1;fillColor=#ffffff;strokeColor=#000000;" vertex="1" parent="1">
          <mxGeometry x="780" y="170" width="120" height="60" as="geometry" />
        </mxCell>
        <mxCell id="qBhKY9y_Wehlic3gjd-y-7" value="Pengelolaan Mobil" style="ellipse;whiteSpace=wrap;html=1;fillColor=#ffffff;strokeColor=#000000;" vertex="1" parent="1">
          <mxGeometry x="780" y="790" width="120" height="60" as="geometry" />
        </mxCell>
        <mxCell id="qBhKY9y_Wehlic3gjd-y-8" value="Laporan dan Evaluasi" style="ellipse;whiteSpace=wrap;html=1;fillColor=#ffffff;strokeColor=#000000;" vertex="1" parent="1">
          <mxGeometry x="780" y="970" width="120" height="60" as="geometry" />
        </mxCell>
        <mxCell id="qBhKY9y_Wehlic3gjd-y-9" value="Penerimaan Order" style="ellipse;whiteSpace=wrap;html=1;fillColor=#ffffff;strokeColor=#000000;" vertex="1" parent="1">
          <mxGeometry x="780" y="465" width="120" height="60" as="geometry" />
        </mxCell>
        <mxCell id="qBhKY9y_Wehlic3gjd-y-10" value="Verifikasi dan Aktivasi Akun" style="ellipse;whiteSpace=wrap;html=1;fillColor=#ffffff;strokeColor=#000000;" vertex="1" parent="1">
          <mxGeometry x="580" y="170" width="140" height="60" as="geometry" />
        </mxCell>
        <mxCell id="qBhKY9y_Wehlic3gjd-y-11" value="Melihat Daftar Mobil" style="ellipse;whiteSpace=wrap;html=1;fillColor=#ffffff;strokeColor=#000000;" vertex="1" parent="1">
          <mxGeometry x="780" y="320" width="120" height="60" as="geometry" />
        </mxCell>
        <mxCell id="qBhKY9y_Wehlic3gjd-y-12" value="Pemesanan Mobil" style="ellipse;whiteSpace=wrap;html=1;fillColor=#ffffff;strokeColor=#000000;" vertex="1" parent="1">
          <mxGeometry x="780" y="390" width="120" height="60" as="geometry" />
        </mxCell>
        <mxCell id="qBhKY9y_Wehlic3gjd-y-13" value="Konfirmasi Pembayaran" style="ellipse;whiteSpace=wrap;html=1;fillColor=#ffffff;strokeColor=#000000;" vertex="1" parent="1">
          <mxGeometry x="770" y="620" width="140" height="60" as="geometry" />
        </mxCell>
        <mxCell id="qBhKY9y_Wehlic3gjd-y-14" value="Penyerahan Mobil" style="ellipse;whiteSpace=wrap;html=1;fillColor=#ffffff;strokeColor=#000000;" vertex="1" parent="1">
          <mxGeometry x="780" y="540" width="120" height="60" as="geometry" />
        </mxCell>
        <mxCell id="qBhKY9y_Wehlic3gjd-y-15" value="Penggunaan Mobil" style="ellipse;whiteSpace=wrap;html=1;fillColor=#ffffff;strokeColor=#000000;" vertex="1" parent="1">
          <mxGeometry x="780" y="700" width="120" height="60" as="geometry" />
        </mxCell>
        <mxCell id="qBhKY9y_Wehlic3gjd-y-16" value="Pengembalian Mobil" style="ellipse;whiteSpace=wrap;html=1;fillColor=#ffffff;strokeColor=#000000;" vertex="1" parent="1">
          <mxGeometry x="780" y="880" width="120" height="60" as="geometry" />
        </mxCell>
        <mxCell id="qBhKY9y_Wehlic3gjd-y-17" value="" style="endArrow=none;html=1;rounded=0;exitX=1;exitY=0.3333333333333333;exitDx=0;exitDy=0;exitPerimeter=0;entryX=0;entryY=0.5;entryDx=0;entryDy=0;" edge="1" parent="1" source="qBhKY9y_Wehlic3gjd-y-2" target="qBhKY9y_Wehlic3gjd-y-43">
          <mxGeometry width="50" height="50" relative="1" as="geometry">
            <mxPoint x="780" y="470" as="sourcePoint" />
            <mxPoint x="830" y="420" as="targetPoint" />
          </mxGeometry>
        </mxCell>
        <mxCell id="qBhKY9y_Wehlic3gjd-y-18" value="" style="endArrow=none;html=1;rounded=0;exitX=1;exitY=0.3333333333333333;exitDx=0;exitDy=0;exitPerimeter=0;entryX=0;entryY=0.5;entryDx=0;entryDy=0;" edge="1" parent="1" source="qBhKY9y_Wehlic3gjd-y-2" target="qBhKY9y_Wehlic3gjd-y-7">
          <mxGeometry width="50" height="50" relative="1" as="geometry">
            <mxPoint x="780" y="470" as="sourcePoint" />
            <mxPoint x="830" y="420" as="targetPoint" />
          </mxGeometry>
        </mxCell>
        <mxCell id="qBhKY9y_Wehlic3gjd-y-19" value="" style="endArrow=none;html=1;rounded=0;exitX=1;exitY=0.3333333333333333;exitDx=0;exitDy=0;exitPerimeter=0;entryX=0;entryY=0.5;entryDx=0;entryDy=0;" edge="1" parent="1" source="qBhKY9y_Wehlic3gjd-y-2" target="qBhKY9y_Wehlic3gjd-y-8">
          <mxGeometry width="50" height="50" relative="1" as="geometry">
            <mxPoint x="780" y="470" as="sourcePoint" />
            <mxPoint x="830" y="420" as="targetPoint" />
          </mxGeometry>
        </mxCell>
        <mxCell id="qBhKY9y_Wehlic3gjd-y-20" value="" style="endArrow=none;html=1;rounded=0;exitX=1;exitY=0.3333333333333333;exitDx=0;exitDy=0;exitPerimeter=0;entryX=0;entryY=0.5;entryDx=0;entryDy=0;" edge="1" parent="1" source="qBhKY9y_Wehlic3gjd-y-3" target="qBhKY9y_Wehlic3gjd-y-43">
          <mxGeometry width="50" height="50" relative="1" as="geometry">
            <mxPoint x="780" y="470" as="sourcePoint" />
            <mxPoint x="830" y="420" as="targetPoint" />
          </mxGeometry>
        </mxCell>
        <mxCell id="qBhKY9y_Wehlic3gjd-y-21" value="" style="endArrow=none;html=1;rounded=0;exitX=1;exitY=0.3333333333333333;exitDx=0;exitDy=0;exitPerimeter=0;entryX=0;entryY=0.5;entryDx=0;entryDy=0;" edge="1" parent="1" source="qBhKY9y_Wehlic3gjd-y-3" target="qBhKY9y_Wehlic3gjd-y-7">
          <mxGeometry width="50" height="50" relative="1" as="geometry">
            <mxPoint x="780" y="470" as="sourcePoint" />
            <mxPoint x="830" y="420" as="targetPoint" />
          </mxGeometry>
        </mxCell>
        <mxCell id="qBhKY9y_Wehlic3gjd-y-22" value="" style="endArrow=none;html=1;rounded=0;exitX=1;exitY=0.3333333333333333;exitDx=0;exitDy=0;exitPerimeter=0;entryX=0;entryY=0.5;entryDx=0;entryDy=0;" edge="1" parent="1" source="qBhKY9y_Wehlic3gjd-y-3" target="qBhKY9y_Wehlic3gjd-y-9">
          <mxGeometry width="50" height="50" relative="1" as="geometry">
            <mxPoint x="780" y="470" as="sourcePoint" />
            <mxPoint x="830" y="420" as="targetPoint" />
          </mxGeometry>
        </mxCell>
        <mxCell id="qBhKY9y_Wehlic3gjd-y-23" value="" style="endArrow=none;html=1;rounded=0;exitX=1;exitY=0.3333333333333333;exitDx=0;exitDy=0;exitPerimeter=0;entryX=0;entryY=0.5;entryDx=0;entryDy=0;" edge="1" parent="1" source="qBhKY9y_Wehlic3gjd-y-3" target="qBhKY9y_Wehlic3gjd-y-10">
          <mxGeometry width="50" height="50" relative="1" as="geometry">
            <mxPoint x="780" y="470" as="sourcePoint" />
            <mxPoint x="830" y="420" as="targetPoint" />
          </mxGeometry>
        </mxCell>
        <mxCell id="qBhKY9y_Wehlic3gjd-y-24" value="" style="endArrow=none;html=1;rounded=0;exitX=1;exitY=0.3333333333333333;exitDx=0;exitDy=0;exitPerimeter=0;entryX=0;entryY=0.5;entryDx=0;entryDy=0;" edge="1" parent="1" source="qBhKY9y_Wehlic3gjd-y-3" target="qBhKY9y_Wehlic3gjd-y-45">
          <mxGeometry width="50" height="50" relative="1" as="geometry">
            <mxPoint x="780" y="470" as="sourcePoint" />
            <mxPoint x="830" y="420" as="targetPoint" />
          </mxGeometry>
        </mxCell>
        <mxCell id="qBhKY9y_Wehlic3gjd-y-25" value="" style="endArrow=none;html=1;rounded=0;exitX=1;exitY=0.3333333333333333;exitDx=0;exitDy=0;exitPerimeter=0;entryX=0;entryY=0.5;entryDx=0;entryDy=0;" edge="1" parent="1" source="qBhKY9y_Wehlic3gjd-y-3" target="qBhKY9y_Wehlic3gjd-y-13">
          <mxGeometry width="50" height="50" relative="1" as="geometry">
            <mxPoint x="780" y="470" as="sourcePoint" />
            <mxPoint x="830" y="420" as="targetPoint" />
          </mxGeometry>
        </mxCell>
        <mxCell id="qBhKY9y_Wehlic3gjd-y-26" value="" style="endArrow=none;html=1;rounded=0;exitX=1;exitY=0.3333333333333333;exitDx=0;exitDy=0;exitPerimeter=0;entryX=0;entryY=0.5;entryDx=0;entryDy=0;" edge="1" parent="1" source="qBhKY9y_Wehlic3gjd-y-3" target="qBhKY9y_Wehlic3gjd-y-14">
          <mxGeometry width="50" height="50" relative="1" as="geometry">
            <mxPoint x="780" y="470" as="sourcePoint" />
            <mxPoint x="830" y="420" as="targetPoint" />
          </mxGeometry>
        </mxCell>
        <mxCell id="qBhKY9y_Wehlic3gjd-y-27" value="" style="endArrow=none;html=1;rounded=0;exitX=1;exitY=0.3333333333333333;exitDx=0;exitDy=0;exitPerimeter=0;entryX=0;entryY=0.5;entryDx=0;entryDy=0;" edge="1" parent="1" source="qBhKY9y_Wehlic3gjd-y-3" target="qBhKY9y_Wehlic3gjd-y-16">
          <mxGeometry width="50" height="50" relative="1" as="geometry">
            <mxPoint x="780" y="470" as="sourcePoint" />
            <mxPoint x="830" y="420" as="targetPoint" />
          </mxGeometry>
        </mxCell>
        <mxCell id="qBhKY9y_Wehlic3gjd-y-28" value="" style="endArrow=none;html=1;rounded=0;exitX=1;exitY=0.3333333333333333;exitDx=0;exitDy=0;exitPerimeter=0;entryX=0;entryY=0.5;entryDx=0;entryDy=0;" edge="1" parent="1" source="qBhKY9y_Wehlic3gjd-y-4" target="qBhKY9y_Wehlic3gjd-y-6">
          <mxGeometry width="50" height="50" relative="1" as="geometry">
            <mxPoint x="780" y="470" as="sourcePoint" />
            <mxPoint x="830" y="420" as="targetPoint" />
          </mxGeometry>
        </mxCell>
        <mxCell id="qBhKY9y_Wehlic3gjd-y-29" value="" style="endArrow=none;html=1;rounded=0;exitX=1;exitY=0.3333333333333333;exitDx=0;exitDy=0;exitPerimeter=0;entryX=0;entryY=0.5;entryDx=0;entryDy=0;" edge="1" parent="1" source="qBhKY9y_Wehlic3gjd-y-4" target="qBhKY9y_Wehlic3gjd-y-43">
          <mxGeometry width="50" height="50" relative="1" as="geometry">
            <mxPoint x="780" y="470" as="sourcePoint" />
            <mxPoint x="830" y="420" as="targetPoint" />
          </mxGeometry>
        </mxCell>
        <mxCell id="qBhKY9y_Wehlic3gjd-y-30" value="" style="endArrow=none;html=1;rounded=0;exitX=0.5;exitY=1;exitDx=0;exitDy=0;entryX=0;entryY=0.5;entryDx=0;entryDy=0;dashed=1;" edge="1" parent="1" source="qBhKY9y_Wehlic3gjd-y-45" target="qBhKY9y_Wehlic3gjd-y-14">
          <mxGeometry width="50" height="50" relative="1" as="geometry">
            <mxPoint x="780" y="470" as="sourcePoint" />
            <mxPoint x="830" y="420" as="targetPoint" />
          </mxGeometry>
        </mxCell>
        <mxCell id="qBhKY9y_Wehlic3gjd-y-31" value="Extend" style="edgeLabel;html=1;align=center;verticalAlign=middle;resizable=0;points=[];" vertex="1" connectable="0" parent="qBhKY9y_Wehlic3gjd-y-30">
          <mxGeometry x="-0.0345" y="-2" relative="1" as="geometry">
            <mxPoint as="offset" />
          </mxGeometry>
        </mxCell>
        <mxCell id="qBhKY9y_Wehlic3gjd-y-32" value="" style="endArrow=none;html=1;rounded=0;exitX=1;exitY=0.3333333333333333;exitDx=0;exitDy=0;exitPerimeter=0;entryX=0;entryY=0.5;entryDx=0;entryDy=0;" edge="1" parent="1" source="qBhKY9y_Wehlic3gjd-y-4" target="qBhKY9y_Wehlic3gjd-y-15">
          <mxGeometry width="50" height="50" relative="1" as="geometry">
            <mxPoint x="780" y="470" as="sourcePoint" />
            <mxPoint x="830" y="420" as="targetPoint" />
          </mxGeometry>
        </mxCell>
        <mxCell id="qBhKY9y_Wehlic3gjd-y-33" value="" style="endArrow=none;html=1;rounded=0;exitX=1;exitY=0.3333333333333333;exitDx=0;exitDy=0;exitPerimeter=0;entryX=0;entryY=0.5;entryDx=0;entryDy=0;" edge="1" parent="1" source="qBhKY9y_Wehlic3gjd-y-4" target="qBhKY9y_Wehlic3gjd-y-16">
          <mxGeometry width="50" height="50" relative="1" as="geometry">
            <mxPoint x="780" y="470" as="sourcePoint" />
            <mxPoint x="830" y="420" as="targetPoint" />
          </mxGeometry>
        </mxCell>
        <mxCell id="qBhKY9y_Wehlic3gjd-y-34" value="" style="endArrow=none;html=1;rounded=0;exitX=0;exitY=0.3333333333333333;exitDx=0;exitDy=0;exitPerimeter=0;entryX=1;entryY=0.5;entryDx=0;entryDy=0;" edge="1" parent="1" source="qBhKY9y_Wehlic3gjd-y-5" target="qBhKY9y_Wehlic3gjd-y-6">
          <mxGeometry width="50" height="50" relative="1" as="geometry">
            <mxPoint x="780" y="470" as="sourcePoint" />
            <mxPoint x="830" y="420" as="targetPoint" />
          </mxGeometry>
        </mxCell>
        <mxCell id="qBhKY9y_Wehlic3gjd-y-35" value="" style="endArrow=none;html=1;rounded=0;exitX=0;exitY=0.3333333333333333;exitDx=0;exitDy=0;exitPerimeter=0;entryX=1;entryY=0.5;entryDx=0;entryDy=0;" edge="1" parent="1" source="qBhKY9y_Wehlic3gjd-y-5" target="qBhKY9y_Wehlic3gjd-y-43">
          <mxGeometry width="50" height="50" relative="1" as="geometry">
            <mxPoint x="780" y="470" as="sourcePoint" />
            <mxPoint x="830" y="420" as="targetPoint" />
          </mxGeometry>
        </mxCell>
        <mxCell id="qBhKY9y_Wehlic3gjd-y-36" value="" style="endArrow=none;html=1;rounded=0;exitX=0;exitY=0.3333333333333333;exitDx=0;exitDy=0;exitPerimeter=0;entryX=1;entryY=0.5;entryDx=0;entryDy=0;" edge="1" parent="1" source="qBhKY9y_Wehlic3gjd-y-5" target="qBhKY9y_Wehlic3gjd-y-11">
          <mxGeometry width="50" height="50" relative="1" as="geometry">
            <mxPoint x="780" y="470" as="sourcePoint" />
            <mxPoint x="830" y="420" as="targetPoint" />
          </mxGeometry>
        </mxCell>
        <mxCell id="qBhKY9y_Wehlic3gjd-y-37" value="" style="endArrow=none;html=1;rounded=0;exitX=0;exitY=0.3333333333333333;exitDx=0;exitDy=0;exitPerimeter=0;entryX=1;entryY=0.5;entryDx=0;entryDy=0;" edge="1" parent="1" source="qBhKY9y_Wehlic3gjd-y-5" target="qBhKY9y_Wehlic3gjd-y-12">
          <mxGeometry width="50" height="50" relative="1" as="geometry">
            <mxPoint x="780" y="470" as="sourcePoint" />
            <mxPoint x="830" y="420" as="targetPoint" />
          </mxGeometry>
        </mxCell>
        <mxCell id="qBhKY9y_Wehlic3gjd-y-38" value="" style="endArrow=none;html=1;rounded=0;exitX=0;exitY=0.3333333333333333;exitDx=0;exitDy=0;exitPerimeter=0;entryX=1;entryY=0.5;entryDx=0;entryDy=0;" edge="1" parent="1" source="qBhKY9y_Wehlic3gjd-y-5" target="qBhKY9y_Wehlic3gjd-y-13">
          <mxGeometry width="50" height="50" relative="1" as="geometry">
            <mxPoint x="780" y="470" as="sourcePoint" />
            <mxPoint x="830" y="420" as="targetPoint" />
          </mxGeometry>
        </mxCell>
        <mxCell id="qBhKY9y_Wehlic3gjd-y-39" value="" style="endArrow=none;html=1;rounded=0;exitX=0;exitY=0.3333333333333333;exitDx=0;exitDy=0;exitPerimeter=0;entryX=1;entryY=0.5;entryDx=0;entryDy=0;" edge="1" parent="1" source="qBhKY9y_Wehlic3gjd-y-5" target="qBhKY9y_Wehlic3gjd-y-14">
          <mxGeometry width="50" height="50" relative="1" as="geometry">
            <mxPoint x="780" y="470" as="sourcePoint" />
            <mxPoint x="830" y="420" as="targetPoint" />
          </mxGeometry>
        </mxCell>
        <mxCell id="qBhKY9y_Wehlic3gjd-y-40" value="" style="endArrow=none;html=1;rounded=0;exitX=0;exitY=0.3333333333333333;exitDx=0;exitDy=0;exitPerimeter=0;entryX=1;entryY=0.5;entryDx=0;entryDy=0;" edge="1" parent="1" source="qBhKY9y_Wehlic3gjd-y-5" target="qBhKY9y_Wehlic3gjd-y-15">
          <mxGeometry width="50" height="50" relative="1" as="geometry">
            <mxPoint x="780" y="470" as="sourcePoint" />
            <mxPoint x="830" y="420" as="targetPoint" />
          </mxGeometry>
        </mxCell>
        <mxCell id="qBhKY9y_Wehlic3gjd-y-41" value="" style="endArrow=none;html=1;rounded=0;exitX=0;exitY=0.3333333333333333;exitDx=0;exitDy=0;exitPerimeter=0;entryX=1;entryY=0.5;entryDx=0;entryDy=0;" edge="1" parent="1" source="qBhKY9y_Wehlic3gjd-y-5" target="qBhKY9y_Wehlic3gjd-y-16">
          <mxGeometry width="50" height="50" relative="1" as="geometry">
            <mxPoint x="780" y="470" as="sourcePoint" />
            <mxPoint x="830" y="420" as="targetPoint" />
          </mxGeometry>
        </mxCell>
        <mxCell id="qBhKY9y_Wehlic3gjd-y-42" value="" style="endArrow=none;html=1;rounded=0;exitX=1;exitY=0.3333333333333333;exitDx=0;exitDy=0;exitPerimeter=0;entryX=0;entryY=0.5;entryDx=0;entryDy=0;" edge="1" parent="1" source="qBhKY9y_Wehlic3gjd-y-3" target="qBhKY9y_Wehlic3gjd-y-43">
          <mxGeometry width="50" height="50" relative="1" as="geometry">
            <mxPoint x="390" y="410" as="sourcePoint" />
            <mxPoint x="830" y="420" as="targetPoint" />
          </mxGeometry>
        </mxCell>
        <mxCell id="qBhKY9y_Wehlic3gjd-y-43" value="Login" style="ellipse;whiteSpace=wrap;html=1;fillColor=#ffffff;strokeColor=#000000;" vertex="1" parent="1">
          <mxGeometry x="780" y="250" width="120" height="60" as="geometry" />
        </mxCell>
        <mxCell id="qBhKY9y_Wehlic3gjd-y-44" value="" style="endArrow=none;html=1;rounded=0;exitX=1;exitY=0.3333333333333333;exitDx=0;exitDy=0;exitPerimeter=0;entryX=0;entryY=0.5;entryDx=0;entryDy=0;" edge="1" parent="1" source="qBhKY9y_Wehlic3gjd-y-4" target="qBhKY9y_Wehlic3gjd-y-45">
          <mxGeometry width="50" height="50" relative="1" as="geometry">
            <mxPoint x="390" y="610" as="sourcePoint" />
            <mxPoint x="770" y="500" as="targetPoint" />
          </mxGeometry>
        </mxCell>
        <mxCell id="qBhKY9y_Wehlic3gjd-y-45" value="Penugasan Sopir" style="ellipse;whiteSpace=wrap;html=1;fillColor=#ffffff;strokeColor=#000000;" vertex="1" parent="1">
          <mxGeometry x="660" y="435" width="120" height="60" as="geometry" />
        </mxCell>
        <mxCell id="qBhKY9y_Wehlic3gjd-y-46" value="" style="endArrow=none;dashed=1;html=1;rounded=0;entryX=0;entryY=0.5;entryDx=0;entryDy=0;" edge="1" parent="1" target="qBhKY9y_Wehlic3gjd-y-6">
          <mxGeometry width="50" height="50" relative="1" as="geometry">
            <mxPoint x="720" y="200" as="sourcePoint" />
            <mxPoint x="770" y="150" as="targetPoint" />
          </mxGeometry>
        </mxCell>
        <mxCell id="qBhKY9y_Wehlic3gjd-y-47" value="extend" style="edgeLabel;html=1;align=center;verticalAlign=middle;resizable=0;points=[];" vertex="1" connectable="0" parent="qBhKY9y_Wehlic3gjd-y-46">
          <mxGeometry x="-0.0821" relative="1" as="geometry">
            <mxPoint as="offset" />
          </mxGeometry>
        </mxCell>
      </root>
    </mxGraphModel>
  </diagram>
</mxfile>
